<?xml version="1.0" encoding="iso-8859-1"?>
<!-- Generator: Adobe Illustrator 19.0.0, SVG Export Plug-In . SVG Version: 6.00 Build 0)  -->
<svg version="1.1" id="Capa_1" xmlns="http://www.w3.org/2000/svg" xmlns:xlink="http://www.w3.org/1999/xlink" x="0px" y="0px"
	 viewBox="0 0 512 512" style="enable-background:new 0 0 512 512;" xml:space="preserve">
<g>
	<g>
		<path d="M84.517,405.174c-16.132,0-29.256,13.124-29.256,29.256c0,16.132,13.124,29.256,29.256,29.256
			c16.133,0,29.256-13.124,29.256-29.256C113.773,418.297,100.648,405.174,84.517,405.174z M84.517,448.694
			c-7.865,0-14.264-6.398-14.264-14.264c0-7.865,6.398-14.264,14.264-14.264c7.866,0,14.264,6.399,14.264,14.264
			C98.78,442.295,92.382,448.694,84.517,448.694z"/>
	</g>
</g>
<g>
	<g>
		<path d="M487.767,342.968h-74.992l69.402-39.956c5.609-3.23,9.626-8.451,11.308-14.7c1.683-6.25,0.832-12.781-2.398-18.391
			l-60.155-104.488c-6.667-11.579-21.512-15.576-33.091-8.91l-78.934,45.444L365,123.409c3.275-5.583,4.181-12.107,2.55-18.371
			s-5.604-11.516-11.186-14.792L252.375,29.23c-11.524-6.763-26.401-2.888-33.165,8.637l-50.178,85.518V22.488
			c0-12.4-10.089-22.488-22.488-22.488H22.488C10.089,0,0,10.089,0,22.488v131.495c0,4.141,3.356,7.496,7.496,7.496
			c4.141,0,7.496-3.355,7.496-7.496V22.488c0-4.134,3.362-7.496,7.496-7.496h124.055c4.134,0,7.496,3.362,7.496,7.496v465.278
			c0,5.095-4.144,9.239-9.238,9.24c-0.007,0-0.013,0.001-0.019,0.001H22.488c-4.134,0-7.496-3.362-7.496-7.496V183.969
			c0-4.141-3.355-7.496-7.496-7.496c-4.14,0-7.496,3.355-7.496,7.496v305.543C0,501.911,10.089,512,22.488,512l277.578-0.001
			c4.141,0,7.496-3.355,7.496-7.496s-3.355-7.496-7.496-7.496H167.743c0.832-2.346,1.289-4.867,1.289-7.495v-1.745v-4.472
			l7.634-4.396c1.262,0.967,2.836,1.546,4.548,1.546h75.401c4.141,0,7.496-3.355,7.496-7.496v-44.394l17.679-10.178l1.552-0.894
			v55.466c0,4.141,3.355,7.496,7.496,7.496h75.401c4.141,0,7.496-3.355,7.496-7.496v-88.407c0-4.141-3.355-7.496-7.496-7.496
			h-12.659l33.153-19.087h101.032c5.095,0,9.24,4.145,9.24,9.24v120.566c0,5.095-4.145,9.24-9.24,9.24H330.051
			c-4.141,0-7.496,3.355-7.496,7.496s3.355,7.496,7.496,7.496h157.716c13.362,0,24.233-10.87,24.233-24.233V367.2
			C512,353.838,501.13,342.968,487.767,342.968z M169.032,217.581l22.619-38.34l63.231,37.303l-30.695,52.03l-55.155-32.539V217.581
			z M169.032,293.177l30.147,17.785l-30.147,51.1V293.177z M169.032,380.447c0.689,0.201,1.391,0.308,2.092,0.308
			c2.565,0,5.064-1.318,6.464-3.688l38.313-64.943c1.01-1.712,1.298-3.756,0.803-5.681c-0.497-1.925-1.737-3.574-3.45-4.585
			l-44.22-26.089v-22.329l53.992,31.854c1.163,0.687,2.48,1.039,3.809,1.039c0.627,0,1.255-0.078,1.872-0.237
			c1.925-0.497,3.574-1.737,4.585-3.45l38.313-64.943c2.103-3.565,0.919-8.161-2.648-10.266l-76.143-44.921
			c-3.561-2.101-8.16-0.919-10.265,2.648l-13.515,22.909v-35.066l63.11-107.556c2.579-4.395,8.255-5.871,12.646-3.293
			l103.988,61.016h0.001c4.394,2.578,5.871,8.251,3.293,12.644l-183.039,311.95V380.447z M269.005,287.015l35.421-20.331
			l36.544,63.672l-52.393,30.07l-30.978-53.974l4.456-7.594L269.005,287.015z M228.912,355.342l16.978,29.583l-51.771,29.714
			l1.31-2.234l7.853-13.383L228.912,355.342z M249.12,465.453h-49.097l49.097-28.266V465.453z M358.745,392.039v73.414h-60.409
			v-56.601l6.491-3.737l22.714-13.076H358.745z M169.032,465.995v-8.6l16.016-27.296c1.446,1.689,3.536,2.627,5.686,2.627
			c1.266,0,2.549-0.32,3.725-0.995l65.396-37.534c1.725-0.989,2.984-2.624,3.504-4.543c0.52-1.919,0.256-3.966-0.734-5.69
			l-24.975-43.515l11.209-19.103l30.445,53.045c1.386,2.415,3.911,3.766,6.509,3.766c1.266,0,2.549-0.32,3.725-0.995l65.396-37.534
			c3.591-2.06,4.831-6.643,2.77-10.233l-44.006-76.676c-0.99-1.725-2.624-2.984-4.543-3.504c-1.919-0.521-3.966-0.255-5.69,0.734
			l-19.167,11.001l19.281-32.861l101.74-58.574c4.416-2.541,10.078-1.018,12.618,3.397l60.155,104.488
			c1.231,2.139,1.557,4.63,0.914,7.012c-0.642,2.384-2.173,4.375-4.312,5.605L169.032,465.995z"/>
	</g>
</g>
<g>
	<g>
		<path d="M129.407,35.586H41c-4.141,0-7.496,3.355-7.496,7.496v75.401c0,4.141,3.355,7.496,7.496,7.496h88.407
			c4.141,0,7.496-3.355,7.496-7.496V43.082C136.903,38.941,133.547,35.586,129.407,35.586z M121.91,110.987H48.496V50.578h73.414
			V110.987z"/>
	</g>
</g>
<g>
	<g>
		<path d="M129.407,145.21H41c-4.141,0-7.496,3.355-7.496,7.496v75.401c0,4.141,3.355,7.496,7.496,7.496h88.407
			c4.141,0,7.496-3.355,7.496-7.496v-75.401C136.903,148.566,133.547,145.21,129.407,145.21z M121.91,220.611H48.496v-60.409h73.414
			V220.611z"/>
	</g>
</g>
<g>
	<g>
		<path d="M129.407,254.835H41c-4.141,0-7.496,3.355-7.496,7.496v75.4c0,4.141,3.355,7.496,7.496,7.496h88.407
			c4.141,0,7.496-3.355,7.496-7.496v-75.4C136.903,258.19,133.547,254.835,129.407,254.835z M121.91,330.235H48.496v-60.408h73.414
			V330.235z"/>
	</g>
</g>
<g>
	<g>
		<path d="M475.865,377.046h-75.401c-4.141,0-7.496,3.355-7.496,7.496v88.407c0,4.141,3.355,7.496,7.496,7.496h75.401
			c4.141,0,7.496-3.355,7.496-7.496v-88.407C483.361,380.402,480.005,377.046,475.865,377.046z M468.368,465.453h-60.409v-73.414
			h60.409V465.453z"/>
	</g>
</g>
<g>
	<g>
		<path d="M324.659,113.021L248.516,68.1c-3.562-2.101-8.16-0.918-10.266,2.648l-10.674,18.092
			c-2.103,3.565-0.919,8.161,2.648,10.266c3.564,2.101,8.161,0.919,10.266-2.648l6.863-11.635l63.231,37.303l-30.695,52.031
			l-63.23-37.304l8.591-14.561c2.104-3.565,0.919-8.161-2.648-10.266c-3.563-2.102-8.161-0.919-10.266,2.648l-12.399,21.016
			c-2.103,3.566-0.919,8.162,2.648,10.266l76.143,44.922c1.163,0.686,2.481,1.039,3.809,1.039c0.627,0,1.255-0.078,1.872-0.237
			c1.925-0.497,3.574-1.737,4.585-3.45l38.313-64.944C329.41,119.721,328.225,115.126,324.659,113.021z"/>
	</g>
</g>
<g>
	<g>
		<path d="M452.783,274.826l-44.006-76.676c-2.062-3.592-6.644-4.832-10.233-2.77l-65.397,37.534
			c-1.724,0.99-2.984,2.624-3.504,4.543c-0.52,1.919-0.256,3.966,0.734,5.69l44.006,76.676c1.386,2.415,3.911,3.765,6.509,3.765
			c1.266,0,2.549-0.32,3.725-0.995l65.396-37.534C453.604,282.999,454.843,278.416,452.783,274.826z M383.655,305.859
			l-36.545-63.672l52.394-30.071l36.544,63.672L383.655,305.859z"/>
	</g>
</g>
<g>
</g>
<g>
</g>
<g>
</g>
<g>
</g>
<g>
</g>
<g>
</g>
<g>
</g>
<g>
</g>
<g>
</g>
<g>
</g>
<g>
</g>
<g>
</g>
<g>
</g>
<g>
</g>
<g>
</g>
</svg>
