<?xml version="1.0" encoding="iso-8859-1"?>
<!-- Generator: Adobe Illustrator 16.0.0, SVG Export Plug-In . SVG Version: 6.00 Build 0)  -->
<!DOCTYPE svg PUBLIC "-//W3C//DTD SVG 1.1//EN" "http://www.w3.org/Graphics/SVG/1.1/DTD/svg11.dtd">
<svg version="1.1" id="Capa_1" xmlns="http://www.w3.org/2000/svg" xmlns:xlink="http://www.w3.org/1999/xlink" x="0px" y="0px"
	 width="252.061px" height="252.061px" viewBox="0 0 252.061 252.061" style="enable-background:new 0 0 252.061 252.061;"
	 xml:space="preserve">
<g>
	<g>
		<g>
			<path style="fill:#030303;" d="M61.117,62.767H0V1.575h61.117V62.767z M11.71,51.056h37.696V13.286H11.71V51.056z"/>
		</g>
		<g>
			<path style="fill:#030303;" d="M61.117,155.856H0V94.645h61.117V155.856z M11.71,144.145h37.696v-37.79H11.71V144.145z"/>
		</g>
		<g>
			<path style="fill:#030303;" d="M61.117,252.061H0V190.85h61.117V252.061z M11.71,240.351h37.696V202.56H11.71V240.351z"/>
		</g>
		<g>
			<path style="fill:#030303;" d="M156.593,61.206H95.468V0h61.125V61.206z M107.178,49.495h37.705V11.71h-37.705V49.495z"/>
		</g>
		<g>
			<path style="fill:#030303;" d="M156.593,154.272H95.468V93.069h61.125V154.272z M107.178,142.562h37.705V104.78h-37.705V142.562z
				"/>
		</g>
		<g>
			<path style="fill:#030303;" d="M156.593,250.483H95.468v-61.194h61.125V250.483z M107.178,238.773h37.705V201h-37.705V238.773z"
				/>
		</g>
		<g>
			<path style="fill:#030303;" d="M252.061,61.211h-61.113V0.005h61.113V61.211z M202.658,49.5h37.693V11.716h-37.693V49.5z"/>
		</g>
		<g>
			<path style="fill:#030303;" d="M252.061,154.284h-61.113V93.081h61.113V154.284z M202.658,142.573h37.693v-37.782h-37.693
				V142.573z"/>
		</g>
		<g>
			<path style="fill:#030303;" d="M252.061,250.495h-61.113v-61.2h61.113V250.495z M202.658,238.785h37.693v-37.779h-37.693V238.785
				z"/>
		</g>
	</g>
</g>
<g>
</g>
<g>
</g>
<g>
</g>
<g>
</g>
<g>
</g>
<g>
</g>
<g>
</g>
<g>
</g>
<g>
</g>
<g>
</g>
<g>
</g>
<g>
</g>
<g>
</g>
<g>
</g>
<g>
</g>
</svg>
