<svg height="512" viewBox="0 0 64 64" width="512" xmlns="http://www.w3.org/2000/svg"><path d="m44 21a12 12 0 1 0 -12 12 12.013 12.013 0 0 0 12-12zm-22 0a10 10 0 1 1 10 10 10.011 10.011 0 0 1 -10-10z"/><path d="m39.414 46.544c5.579-6.544 12.586-16.376 12.586-24.544a20 20 0 0 0 -40 0c0 8.168 7.007 18 12.586 24.544-7.706 1.165-12.586 4.011-12.586 7.456 0 5.2 10.305 8 20 8s20-2.8 20-8c0-3.445-4.88-6.291-12.586-7.456zm-7.414-42.544a18.021 18.021 0 0 1 18 18c0 11.042-14.625 26.241-18 29.6-3.375-3.359-18-18.558-18-29.6a18.021 18.021 0 0 1 18-18zm0 56c-10.607 0-18-3.162-18-6 0-2.052 4.264-4.693 12.162-5.65 2.759 3.092 4.894 5.133 5.15 5.376a1 1 0 0 0 1.376 0c.256-.243 2.391-2.284 5.15-5.376 7.898.957 12.162 3.598 12.162 5.65 0 2.838-7.393 6-18 6z"/></svg>