<svg xmlns="http://www.w3.org/2000/svg" height="512pt" version="1.1" viewBox="-3 0 512 512.42807" width="512pt">
<g id="surface1">
<path d="M 496.027344 217.617188 L 494.167969 217.617188 L 435.773438 21.871094 L 476.890625 21.871094 C 482.925781 21.871094 487.828125 16.972656 487.828125 10.933594 C 487.828125 4.898438 482.925781 0 476.890625 0 L 34.113281 0 C 28.078125 0 23.175781 4.898438 23.175781 10.9375 C 23.175781 16.972656 28.074219 21.871094 34.113281 21.871094 L 71.949219 21.871094 L 13.007812 217.617188 L 11.148438 217.617188 C 5.113281 217.617188 0.210938 222.515625 0.210938 228.550781 C 0.210938 276.230469 38.867188 314.886719 86.546875 314.886719 C 134.226562 314.886719 172.882812 276.230469 172.882812 228.550781 C 172.882812 222.515625 167.984375 217.617188 161.949219 217.617188 L 159.652344 217.617188 L 101.257812 21.871094 L 219.25 21.871094 L 219.25 447.152344 L 163.589844 447.152344 C 159.554688 447.164062 155.859375 449.394531 153.964844 452.949219 L 131.113281 495.925781 C 128.269531 501.25 130.292969 507.875 135.628906 510.71875 C 137.203125 511.5625 138.953125 512 140.734375 512 L 370.378906 512 C 376.417969 512.023438 381.339844 507.144531 381.347656 501.097656 C 381.359375 498.570312 380.496094 496.132812 378.910156 494.175781 L 357.039062 452.949219 C 355.148438 449.394531 351.449219 447.164062 347.414062 447.152344 L 291.207031 447.152344 L 291.207031 21.871094 L 405.921875 21.871094 L 347.527344 217.617188 L 345.230469 217.617188 C 339.195312 217.617188 334.292969 222.515625 334.292969 228.550781 C 334.292969 276.230469 372.949219 314.886719 420.628906 314.886719 C 468.308594 314.886719 506.964844 276.230469 506.964844 228.550781 C 506.964844 222.515625 502.0625 217.617188 496.027344 217.617188 Z M 86.601562 293.070312 C 55.238281 293.0625 28.4375 270.488281 23.066406 239.597656 L 150.136719 239.597656 C 144.769531 270.488281 117.964844 293.0625 86.601562 293.070312 Z M 136.796875 217.726562 L 36.300781 217.726562 L 86.492188 49.320312 Z M 241.121094 21.980469 L 269.335938 21.980469 L 269.335938 447.152344 L 241.121094 447.152344 Z M 340.304688 469.132812 L 351.242188 490.238281 L 158.996094 490.238281 L 169.933594 469.132812 Z M 420.574219 49.429688 L 470.765625 217.835938 L 370.378906 217.835938 Z M 420.574219 293.179688 C 389.234375 293.125 362.449219 270.578125 357.039062 239.707031 L 484.109375 239.707031 C 478.695312 270.554688 451.902344 293.0625 420.574219 293.070312 C 420.574219 293.070312 420.574219 293.179688 420.574219 293.179688 Z M 420.574219 293.179688 " style=" stroke:none;fill-rule:nonzero;fill:rgb(0%,0%,0%);fill-opacity:1;" />
</g>
</svg>