<?xml version="1.0" encoding="iso-8859-1"?>
<!-- Generator: Adobe Illustrator 19.0.0, SVG Export Plug-In . SVG Version: 6.00 Build 0)  -->
<svg version="1.1" id="Layer_1" xmlns="http://www.w3.org/2000/svg" xmlns:xlink="http://www.w3.org/1999/xlink" x="0px" y="0px"
	 viewBox="0 0 512 512" style="enable-background:new 0 0 512 512;" xml:space="preserve">
<g>
	<g>
		<g>
			<path d="M384,0H128c-23.521,0-42.667,19.146-42.667,42.667v426.667C85.333,492.854,104.479,512,128,512h256
				c23.521,0,42.667-19.146,42.667-42.667V42.667C426.667,19.146,407.521,0,384,0z M405.333,469.333
				c0,11.771-9.563,21.333-21.333,21.333H128c-11.771,0-21.333-9.563-21.333-21.333v-42.667h298.667V469.333z M405.333,405.333
				H106.667V42.667c0-11.771,9.563-21.333,21.333-21.333h256c11.771,0,21.333,9.563,21.333,21.333V405.333z"/>
			<path d="M245.333,64h21.333c5.896,0,10.667-4.771,10.667-10.667c0-5.896-4.771-10.667-10.667-10.667h-21.333
				c-5.896,0-10.667,4.771-10.667,10.667C234.667,59.229,239.438,64,245.333,64z"/>
			<path d="M224,469.333h64c5.896,0,10.667-4.771,10.667-10.667S293.896,448,288,448h-64c-5.896,0-10.667,4.771-10.667,10.667
				S218.104,469.333,224,469.333z"/>
			<circle cx="373.333" cy="53.333" r="10.667"/>
			<path d="M294.257,257.861c9.34-12.47,15.077-27.781,15.077-44.527c0-41.167-33.5-74.667-74.667-74.667
				c-41.188,0-74.688,33.5-74.688,74.667c0,41.188,33.5,74.688,74.688,74.688c16.737,0,32.04-5.737,44.506-15.077l54.619,54.618
				c2.083,2.083,4.813,3.125,7.542,3.125c2.729,0,5.458-1.042,7.542-3.125c4.167-4.167,4.167-10.917,0-15.083L294.257,257.861z
				 M234.667,266.688c-29.417,0-53.354-23.938-53.354-53.354c0-29.417,23.938-53.333,53.354-53.333
				C264.083,160,288,183.917,288,213.333C288,242.75,264.083,266.688,234.667,266.688z"/>
		</g>
	</g>
</g>
<g>
</g>
<g>
</g>
<g>
</g>
<g>
</g>
<g>
</g>
<g>
</g>
<g>
</g>
<g>
</g>
<g>
</g>
<g>
</g>
<g>
</g>
<g>
</g>
<g>
</g>
<g>
</g>
<g>
</g>
</svg>
